<svg id="Capa_1" enable-background="new 0 0 497.003 497.003" height="512" viewBox="0 0 497.003 497.003" width="512" xmlns="http://www.w3.org/2000/svg"><g><g><path d="m148.616 387.939v83.721l190.387 25.341h98c33.137 0 60-26.863 60-60 0-2.368 0-23.663 0-49.062z" fill="#7ce3ff"/><path d="m495.004 357.914-.061.062c-22.734 23.075-59.956 23.075-82.689 0l-.061-.062c-22.734-23.075-59.956-23.075-82.689 0l-.061.062c-22.734 23.075-59.955 23.075-82.689 0l-.061-.062c-22.734-23.075-59.955-23.075-82.689 0l-.061.062c-4.596 4.665-9.786 8.377-15.327 11.155v52.68c18.582-3.795 38.66 1.559 52.99 16.103l.061.062c22.734 23.075 59.955 23.075 82.689 0l.061-.062c22.734-23.075 59.956-23.075 82.689 0l.061.062c22.734 23.075 59.956 23.075 82.689 0l.061-.062c12.82-13.013 30.248-18.684 47.086-17.02v-64.908c-.677.625-1.345 1.264-1.999 1.928z" fill="#b9f0ff"/></g><g><g><ellipse cx="200.065" cy="99.579" fill="#18c08b" rx="97.5" ry="45" transform="matrix(.5 -.866 .866 .5 13.794 223.051)"/><g><path d="m112.767 2.143c-9.898-4.08-21.02-2.246-29.025 4.787-10.777 9.466-12.85 25.006-4.732 36.882 10.517 15.387 18.35 32.419 23.296 50.63l75.543 43.615c28.338-60.43-1.293-109.621-65.082-135.914z" fill="#18c08b"/><path d="m308.888 176.531c14.344 1.092 26.766-8.473 29.575-22.539 2.089-10.448-1.885-20.997-10.367-27.529-54.665-42.096-112.081-43.162-150.246 11.593l75.543 43.615c18.244-4.821 36.911-6.554 55.495-5.14z" fill="#30cd9c"/></g><g><path d="m177.85 138.056c-22.693-62.767-78.428-76.598-142.126-50.084-9.884 4.114-16.452 13.275-17.139 23.908-.927 14.314 8.596 26.768 22.734 29.425 18.507 3.48 36.267 10.08 52.787 19.617 16.679 9.63 31.403 21.861 43.761 36.351l4.345 2.509z" fill="#18c08b"/><path d="m292.288 236.098c-8.855-68.165-48.526-109.81-114.438-98.042l-35.638 61.726 4.345 2.509c37.535 6.929 71.996 26.802 96.745 55.629 9.349 10.893 24.889 12.952 36.848 4.978 8.866-5.912 13.517-16.181 12.138-26.8z" fill="#30cd9c"/></g></g><g><path d="m183.86 130.08c.893.939 1.761 1.914 2.586 2.945 13.507 16.889 12.93 40.497-.153 56.635-40.128 49.501-56.179 109.652-49.43 166.141l-70.521 11.495v-180.423z" fill="#e8b5b1"/><path d="m183.86 130.08c-15.988-16.81-42.455-18.875-60.907-4.118-67.517 53.999-113.255 135.059-122.611 230.259-.402 4.093-.338 5.888-.339 10.617l48.246 3.406 18.093-2.949v-11.074c9.12-92.797 52.786-172.182 117.518-226.141z" fill="#d6948c"/></g></g><g><g><g><path d="m339.003 497.001c-33.669-57.94-86.014-103.108-148.5-126.757h-142.254v116.5c12.48 6.548 26.682 10.258 41.754 10.258h249z" fill="#fce3a0"/></g><g><path d="m190.503 370.244c-31.164-11.794-64.847-18.243-100-18.243-31.609 0-62.03 5.212-90.5 14.837v40.163c0 34.634 19.567 64.694 48.246 79.742 33.727-53.007 83.506-94.264 142.254-116.499z" fill="#ffce71"/></g></g><g fill="#ffb357"><circle cx="70.003" cy="384.923" r="7.5"/><circle cx="70.003" cy="456.923" r="7.5"/><circle cx="120.003" cy="426.923" r="7.5"/><circle cx="170.003" cy="396.923" r="7.5"/><circle cx="190.003" cy="456.923" r="7.5"/><circle cx="250.003" cy="436.923" r="7.5"/></g></g><g fill="#ce857a"><path d="m178.919 206.089c-15.801-35.312-51.844-57.615-90.739-55.729-4.138.199-7.329 3.715-7.13 7.853.199 4.139 3.713 7.33 7.853 7.13 32.781-1.586 63.036 17.172 76.325 46.874 1.246 2.786 3.983 4.438 6.85 4.438 1.024 0 2.064-.211 3.06-.656 3.779-1.692 5.473-6.128 3.781-9.91z"/><path d="m138.879 321.168c-32.347-16.987-68.758-25.966-105.297-25.966-8.33 0-16.745.466-25.013 1.385-4.117.458-7.084 4.166-6.626 8.282.457 4.117 4.156 7.084 8.282 6.626 7.72-.858 15.578-1.293 23.356-1.293 34.119 0 68.119 8.384 98.322 24.245 1.113.585 2.306.862 3.481.862 2.697-.001 5.305-1.461 6.646-4.015 1.927-3.666.516-8.2-3.151-10.126z"/><path d="m46.036 208.672c-4.095-.468-7.83 2.493-8.296 6.608-.467 4.115 2.492 7.83 6.608 8.296 40.044 4.535 67.288 16.837 97.172 43.875 1.436 1.299 3.235 1.938 5.03 1.938 2.045 0 4.083-.832 5.563-2.468 2.779-3.072 2.542-7.814-.529-10.594-32.459-29.367-62.052-42.729-105.548-47.655z"/></g></g></svg>